<svg width="22" height="22" viewBox="0 0 22 22" fill="none" xmlns="http://www.w3.org/2000/svg">
<path d="M5.19749 18.6735L8.91965 14.16L10.6223 16.3317L7.34055 20.5051C6.08372 22.1021 3.75803 20.4191 5.19749 18.6735ZM9.54449 8.39504C9.89898 7.23847 9.73606 6.25019 8.40403 4.78209L5.14915 0.866559C4.68723 0.324078 3.59869 1.12079 4.05344 1.77785L6.65663 4.9844C7.14898 5.58238 6.23411 6.37372 5.72564 5.75783L3.03294 2.44208C2.53163 1.86737 1.49501 2.62649 2.01959 3.28355C2.7787 4.19664 3.95318 5.68801 4.7123 6.6011C5.23866 7.13642 4.43837 7.92955 3.91917 7.26174L1.24615 3.96747C0.854062 3.54136 0.213111 3.80634 0.0430266 4.30406C-0.139591 4.8358 0.309791 5.22431 0.615943 5.61819L3.59869 9.47105C4.52431 10.5435 5.55914 11.1791 6.76226 10.8192C6.94667 10.7637 7.17226 10.6509 7.41396 10.5023L15.4276 20.847C15.8591 21.4038 16.6916 21.4629 17.2323 21.0135L17.3559 20.9115C17.9646 20.4048 18.063 19.4792 17.542 18.8812L9.05572 9.13088C9.30279 8.85517 9.48362 8.59377 9.54449 8.39504ZM11.8129 10.6509L13.1324 9.05031C11.4351 4.84296 17.7247 -0.764463 20.7737 1.81366C24.4779 4.94859 18.9726 12.5039 15.1036 10.6366L13.5406 12.6221L11.8129 10.6509Z" fill="#4DACB8"/>
</svg>
