<svg width="117" height="20" viewBox="0 0 117 20" fill="none" xmlns="http://www.w3.org/2000/svg">
<path d="M9.50951 15.5955L15.3348 19.2334L13.7889 12.3769L18.9355 7.76368L12.1582 7.16873L9.50951 0.702393L6.8608 7.16873L0.0834961 7.76368L5.2301 12.3769L3.68423 19.2334L9.50951 15.5955Z" fill="#FFA41D"/>
<path d="M33.926 15.8582L39.7513 19.4961L38.2054 12.6396L43.352 8.02637L36.5747 7.43143L33.926 0.965088L31.2773 7.43143L24.5 8.02637L29.6466 12.6396L28.1007 19.4961L33.926 15.8582Z" fill="#FFA41D"/>
<path d="M58.2829 15.8582L64.1082 19.4961L62.5624 12.6396L67.709 8.02637L60.9317 7.43143L58.2829 0.965088L55.6342 7.43143L48.8569 8.02637L54.0035 12.6396L52.4577 19.4961L58.2829 15.8582Z" fill="#FFA41D"/>
<path d="M82.6995 16.1206L88.5247 19.7585L86.9789 12.9021L92.1255 8.28882L85.3482 7.69388L82.6995 1.22754L80.0507 7.69388L73.2734 8.28882L78.42 12.9021L76.8742 19.7585L82.6995 16.1206Z" fill="#FFA41D"/>
<path d="M101.167 19.3425C101.514 19.6132 101.953 19.5172 102.476 19.1241L106.941 15.7351L111.416 19.1241C111.939 19.5172 112.369 19.6132 112.724 19.3425C113.07 19.0717 113.146 18.6263 112.935 17.9886L111.171 12.5558L115.678 9.20171C116.202 8.81741 116.413 8.41563 116.278 7.97889C116.143 7.55964 115.746 7.35001 115.096 7.35873L109.567 7.39369L107.887 1.93459C107.684 1.28823 107.38 0.965088 106.941 0.965088C106.511 0.965088 106.207 1.28823 106.004 1.93459L104.325 7.39369L98.7954 7.35873C98.1454 7.35001 97.7486 7.55964 97.6136 7.97889C97.4701 8.41563 97.6896 8.81741 98.2129 9.20171L102.721 12.5558L100.956 17.9886C100.745 18.6263 100.821 19.0717 101.167 19.3425ZM106.941 14.2328V3.08757C106.967 3.08757 106.984 3.10505 106.992 3.15744L108.461 8.21472C108.562 8.57282 108.79 8.72133 109.136 8.71257L114.243 8.6165C114.294 8.6165 114.311 8.6165 114.319 8.6427C114.328 8.66893 114.311 8.68638 114.277 8.71257L110.073 11.7172C109.778 11.9269 109.71 12.1977 109.828 12.5383L111.508 17.5344C111.517 17.5868 111.525 17.5956 111.508 17.6131C111.491 17.6393 111.466 17.6218 111.432 17.5956L107.372 14.39C107.237 14.2852 107.093 14.2241 106.941 14.2328Z" fill="#FFA41D"/>
</svg>
