<svg width="117" height="20" viewBox="0 0 117 20" fill="none" xmlns="http://www.w3.org/2000/svg">
<path d="M9.50951 15.5955L15.3348 19.2334L13.7889 12.3769L18.9355 7.76368L12.1582 7.16873L9.50951 0.702393L6.8608 7.16873L0.0834961 7.76368L5.2301 12.3769L3.68423 19.2334L9.50951 15.5955Z" fill="#FFA41D"/>
<path d="M33.926 15.8582L39.7513 19.4961L38.2054 12.6396L43.352 8.02637L36.5747 7.43143L33.926 0.965088L31.2773 7.43143L24.5 8.02637L29.6466 12.6396L28.1007 19.4961L33.926 15.8582Z" fill="#FFA41D"/>
<path d="M58.2829 15.8582L64.1082 19.4961L62.5624 12.6396L67.709 8.02637L60.9317 7.43143L58.2829 0.965088L55.6342 7.43143L48.8569 8.02637L54.0035 12.6396L52.4577 19.4961L58.2829 15.8582Z" fill="#FFA41D"/>
<path d="M82.6995 16.1206L88.5247 19.7585L86.9789 12.9021L92.1255 8.28882L85.3482 7.69388L82.6995 1.22754L80.0507 7.69388L73.2734 8.28882L78.42 12.9021L76.8742 19.7585L82.6995 16.1206Z" fill="#FFA41D"/>
<path d="M107.51 15.5955L113.335 19.2334L111.789 12.3769L116.936 7.76368L110.158 7.16873L107.51 0.702393L104.861 7.16873L98.0835 7.76368L103.23 12.3769L101.684 19.2334L107.51 15.5955Z" fill="#FFA41D"/>
</svg>
