<svg width="19" height="19" viewBox="0 0 19 19" fill="none" xmlns="http://www.w3.org/2000/svg">
<path fill-rule="evenodd" clip-rule="evenodd" d="M13.5714 0H5.42857C2.43045 0 0 2.43045 0 5.42857V13.5714C0 16.5695 2.43045 19 5.42857 19H13.5714C16.5695 19 19 16.5695 19 13.5714V5.42857C19 2.43045 16.5695 0 13.5714 0Z" stroke="white" stroke-width="2" stroke-linecap="round" stroke-linejoin="round"/>
<path fill-rule="evenodd" clip-rule="evenodd" d="M9.4999 13.5716C7.25125 13.5716 5.42847 11.7488 5.42847 9.50014C5.42847 7.25149 7.25125 5.42871 9.4999 5.42871C11.7485 5.42871 13.5713 7.25149 13.5713 9.50014C13.5713 10.5799 13.1423 11.6155 12.3788 12.379C11.6153 13.1426 10.5796 13.5716 9.4999 13.5716Z" stroke="white" stroke-width="2" stroke-linecap="round" stroke-linejoin="round"/>
<path d="M14.9287 2.71443C14.1791 2.71443 13.5715 3.32204 13.5715 4.07157C13.5715 4.8211 14.1791 5.42871 14.9287 5.42871C15.6782 5.42871 16.2858 4.8211 16.2858 4.07157C16.2858 3.32204 15.6782 2.71443 14.9287 2.71443Z" fill="white"/>
<path d="M14.9286 3.39286C14.5538 3.39286 14.25 3.69666 14.25 4.07143C14.25 4.44619 14.5538 4.75 14.9286 4.75C15.3033 4.75 15.6071 4.44619 15.6071 4.07143C15.6071 3.69666 15.3033 3.39286 14.9286 3.39286Z" stroke="white" stroke-width="2" stroke-linecap="round"/>
</svg>
