<svg width="19" height="19" viewBox="0 0 19 19" fill="none" xmlns="http://www.w3.org/2000/svg">
<path fill-rule="evenodd" clip-rule="evenodd" d="M13.5714 0H5.42857C2.43045 0 0 2.43045 0 5.42857V13.5714C0 16.5695 2.43045 19 5.42857 19H13.5714C16.5695 19 19 16.5695 19 13.5714V5.42857C19 2.43045 16.5695 0 13.5714 0Z" stroke="white" stroke-width="2" stroke-linecap="round" stroke-linejoin="round"/>
<path fill-rule="evenodd" clip-rule="evenodd" d="M9.4999 13.5714C7.25125 13.5714 5.42847 11.7486 5.42847 9.49999C5.42847 7.25134 7.25125 5.42856 9.4999 5.42856C11.7485 5.42856 13.5713 7.25134 13.5713 9.49999C13.5713 10.5797 13.1423 11.6154 12.3788 12.3789C11.6153 13.1424 10.5796 13.5714 9.4999 13.5714Z" stroke="white" stroke-width="2" stroke-linecap="round" stroke-linejoin="round"/>
<path d="M14.9287 2.71427C14.1791 2.71427 13.5715 3.32189 13.5715 4.07142C13.5715 4.82094 14.1791 5.42856 14.9287 5.42856C15.6782 5.42856 16.2858 4.82094 16.2858 4.07142C16.2858 3.32189 15.6782 2.71427 14.9287 2.71427Z" fill="white"/>
<path d="M14.9286 3.39283C14.5538 3.39283 14.25 3.69663 14.25 4.0714C14.25 4.44616 14.5538 4.74997 14.9286 4.74997C15.3033 4.74997 15.6071 4.44616 15.6071 4.0714C15.6071 3.69663 15.3033 3.39283 14.9286 3.39283Z" stroke="white" stroke-width="2" stroke-linecap="round"/>
</svg>
