<svg width="117" height="20" viewBox="0 0 117 20" fill="none" xmlns="http://www.w3.org/2000/svg">
<path d="M9.42601 14.8931L15.2513 18.531L13.7054 11.6745L18.852 7.06128L12.0747 6.46634L9.42601 0L6.7773 6.46634L0 7.06128L5.1466 11.6745L3.60074 18.531L9.42601 14.8931Z" fill="#FFA41D"/>
<path d="M33.8425 15.1558L39.6678 18.7937L38.1219 11.9372L43.2685 7.32398L36.4912 6.72904L33.8425 0.262695L31.1938 6.72904L24.4165 7.32398L29.5631 11.9372L28.0172 18.7937L33.8425 15.1558Z" fill="#FFA41D"/>
<path d="M58.1993 15.1558L64.0246 18.7937L62.4787 11.9372L67.6253 7.32398L60.848 6.72904L58.1993 0.262695L55.5506 6.72904L48.7733 7.32398L53.9199 11.9372L52.3741 18.7937L58.1993 15.1558Z" fill="#FFA41D"/>
<path d="M82.6158 15.4182L88.4411 19.0561L86.8952 12.1997L92.0418 7.58643L85.2645 6.99149L82.6158 0.525146L79.9671 6.99149L73.1898 7.58643L78.3364 12.1997L76.7906 19.0561L82.6158 15.4182Z" fill="#FFA41D"/>
<path d="M101.084 18.6401C101.43 18.9108 101.869 18.8148 102.392 18.4218L106.858 15.0327L111.332 18.4218C111.855 18.8148 112.286 18.9108 112.64 18.6401C112.986 18.3693 113.062 17.9239 112.851 17.2863L111.087 11.8534L115.595 8.49931C116.118 8.11501 116.329 7.71324 116.194 7.2765C116.059 6.85725 115.662 6.64762 115.012 6.65634L109.483 6.69129L107.803 1.2322C107.601 0.585839 107.297 0.262695 106.858 0.262695C106.427 0.262695 106.123 0.585839 105.921 1.2322L104.241 6.69129L98.7118 6.65634C98.0618 6.64762 97.665 6.85725 97.53 7.2765C97.3865 7.71324 97.6059 8.11501 98.1293 8.49931L102.637 11.8534L100.873 17.2863C100.662 17.9239 100.738 18.3693 101.084 18.6401ZM106.858 13.5304V2.38518C106.883 2.38518 106.9 2.40265 106.909 2.45505L108.377 7.51233C108.479 7.87043 108.707 8.01894 109.053 8.01018L114.16 7.91411C114.21 7.91411 114.227 7.91411 114.236 7.94031C114.244 7.96654 114.227 7.98398 114.194 8.01018L109.99 11.0149C109.694 11.2245 109.627 11.4953 109.745 11.8359L111.425 16.832C111.433 16.8844 111.442 16.8932 111.425 16.9107C111.408 16.9369 111.383 16.9194 111.349 16.8932L107.288 13.6876C107.153 13.5828 107.01 13.5217 106.858 13.5304Z" fill="#FFA41D"/>
</svg>
