<svg width="22" height="22" viewBox="0 0 22 22" fill="none" xmlns="http://www.w3.org/2000/svg">
<path d="M5.19749 18.6733L8.91965 14.1598L10.6223 16.3315L7.34055 20.5048C6.08372 22.1018 3.75803 20.4189 5.19749 18.6733ZM9.54449 8.3948C9.89898 7.23822 9.73606 6.24994 8.40403 4.78184L5.14915 0.866315C4.68723 0.323834 3.59869 1.12055 4.05344 1.77761L6.65663 4.98415C7.14898 5.58213 6.23411 6.37348 5.72564 5.75759L3.03294 2.44184C2.53163 1.86713 1.49501 2.62624 2.01959 3.28331C2.7787 4.19639 3.95318 5.68777 4.7123 6.60085C5.23866 7.13617 4.43837 7.9293 3.91917 7.2615L1.24615 3.96723C0.854062 3.54112 0.213111 3.80609 0.0430266 4.30381C-0.139591 4.83555 0.309791 5.22406 0.615943 5.61794L3.59869 9.47081C4.52431 10.5432 5.55914 11.1788 6.76226 10.819C6.94667 10.7634 7.17226 10.6507 7.41396 10.5021L15.4276 20.8468C15.8591 21.4036 16.6916 21.4627 17.2323 21.0133L17.3559 20.9112C17.9646 20.4046 18.063 19.4789 17.542 18.881L9.05572 9.13064C9.30279 8.85492 9.48362 8.59353 9.54449 8.3948ZM11.8129 10.6507L13.1324 9.05007C11.4351 4.84271 17.7247 -0.764707 20.7737 1.81342C24.4779 4.94835 18.9726 12.5037 15.1036 10.6363L13.5406 12.6218L11.8129 10.6507Z" fill="#4DACB8"/>
</svg>
