<svg width="20" height="24" viewBox="0 0 20 24" fill="none" xmlns="http://www.w3.org/2000/svg">
<path d="M10 20.253C9.36278 20.253 8.73438 20.1461 8.13672 19.9483V24H11.8633V19.9482C11.2656 20.146 10.6372 20.253 10 20.253Z" fill="#4DACB8"/>
<path d="M17.6772 9.30178C17.8464 8.8455 17.9439 8.35402 17.9439 7.83839C17.9439 5.85938 16.5779 4.20263 14.7373 3.75C14.2297 1.60106 12.3042 0 10 0C7.69582 0 5.77029 1.60106 5.26268 3.75C3.42283 4.20263 2.05615 5.85938 2.05615 7.83839C2.05615 8.35402 2.15285 8.84475 2.32202 9.30178C1.11574 10.188 0.329834 11.6133 0.329834 13.2261C0.329834 15.917 2.51027 18.0982 5.20193 18.0982C5.88382 18.0982 6.53276 17.9576 7.1216 17.7042C7.71851 18.211 8.45022 18.5611 9.25441 18.6974V16.3551L5.87796 12.9771C5.58644 12.6863 5.58644 12.2146 5.87796 11.9239C6.16873 11.6324 6.64043 11.6324 6.93119 11.9239L9.25446 14.2464V11.688L6.93855 9.37214C6.72251 9.15534 6.72251 8.80523 6.93855 8.58919C7.1546 8.37314 7.50546 8.37314 7.7208 8.58919L9.25451 10.1221V7.3133C9.25451 6.90169 9.58849 6.56841 10.0001 6.56841C10.4117 6.56841 10.7457 6.90164 10.7457 7.3133V10.1221L12.2794 8.58919C12.4947 8.37314 12.8456 8.37314 13.0616 8.58919C13.2777 8.80523 13.2777 9.15534 13.0616 9.37214L10.7457 11.688V14.2464L13.069 11.9239C13.3598 11.6324 13.8315 11.6324 14.1222 11.9239C14.4138 12.2146 14.4138 12.6863 14.1222 12.9771L10.7458 16.3551V18.6974C11.55 18.5611 12.2817 18.211 12.8786 17.7049C13.4675 17.9576 14.1157 18.0983 14.7976 18.0983C17.4892 18.0983 19.6704 15.9171 19.6704 13.2262C19.6702 11.6133 18.8843 10.188 17.6772 9.30178Z" fill="#4DACB8"/>
</svg>
