<svg width="18" height="22" viewBox="0 0 18 22" fill="none" xmlns="http://www.w3.org/2000/svg">
<path d="M9 18.5652C8.41588 18.5652 7.83984 18.4672 7.29199 18.2859V22H10.708V18.2859C10.1602 18.4672 9.58412 18.5652 9 18.5652Z" fill="#4DACB8"/>
<path d="M16.0375 8.52663C16.1926 8.10838 16.2819 7.65785 16.2819 7.18519C16.2819 5.37109 15.0298 3.85241 13.3426 3.4375C12.8773 1.46764 11.1122 0 9.00007 0C6.8879 0 5.12282 1.46764 4.65752 3.4375C2.97099 3.85241 1.7182 5.37109 1.7182 7.18519C1.7182 7.65785 1.80684 8.10769 1.96191 8.52663C0.856157 9.339 0.135742 10.6456 0.135742 12.1239C0.135742 14.5906 2.13448 16.59 4.60183 16.59C5.2269 16.59 5.82175 16.4611 6.36153 16.2288C6.90869 16.6934 7.57943 17.0143 8.31661 17.1392V14.9921L5.22152 11.8957C4.9543 11.6291 4.9543 11.1968 5.22152 10.9302C5.48806 10.663 5.92045 10.663 6.18699 10.9302L8.31665 13.0592V10.714L6.19373 8.59113C5.99569 8.3924 5.99569 8.07147 6.19373 7.87342C6.39178 7.67538 6.7134 7.67538 6.9108 7.87342L8.31669 9.27863V6.70386C8.31669 6.32655 8.62284 6.02104 9.00015 6.02104C9.37746 6.02104 9.68361 6.3265 9.68361 6.70386V9.27863L11.0895 7.87342C11.2869 7.67538 11.6085 7.67538 11.8066 7.87342C12.0047 8.07147 12.0046 8.3924 11.8066 8.59113L9.68366 10.714V13.0592L11.8133 10.9302C12.0799 10.663 12.5122 10.663 12.7788 10.9302C13.046 11.1968 13.046 11.6291 12.7788 11.8957L9.6837 14.9921V17.1392C10.4209 17.0144 11.0916 16.6934 11.6388 16.2295C12.1786 16.4612 12.7728 16.5901 13.3978 16.5901C15.8652 16.5901 17.8646 14.5907 17.8646 12.124C17.8644 10.6455 17.144 9.339 16.0375 8.52663Z" fill="#4DACB8"/>
</svg>
