<svg width="26" height="26" viewBox="0 0 26 26" fill="none" xmlns="http://www.w3.org/2000/svg">
<path d="M17.9358 13.9817L17.4423 14.4722C17.4423 14.4722 16.2695 15.6384 13.0683 12.4553C9.86705 9.27225 11.0398 8.1061 11.0398 8.1061L11.3505 7.79715C12.116 7.03606 12.1882 5.81414 11.5203 4.92209L10.1543 3.09732C9.32772 1.99323 7.73054 1.84738 6.78315 2.78939L5.08275 4.48013C4.613 4.94722 4.2982 5.55271 4.33638 6.2244C4.43404 7.94279 5.21152 11.6401 9.54989 15.9538C14.1505 20.5283 18.4673 20.7101 20.2326 20.5455C20.7909 20.4935 21.2765 20.2091 21.6678 19.82L23.2068 18.2899C24.2456 17.2569 23.9526 15.4861 22.6235 14.7636L20.5538 13.6385C19.681 13.1641 18.6179 13.3034 17.9358 13.9817Z" fill="#4DACB8"/>
</svg>
