<svg width="26" height="26" viewBox="0 0 26 26" fill="none" xmlns="http://www.w3.org/2000/svg">
<path d="M17.9358 13.9815L17.4423 14.4721C17.4423 14.4721 16.2695 15.6383 13.0683 12.4551C9.86705 9.27209 11.0398 8.10595 11.0398 8.10595L11.3505 7.79699C12.116 7.03591 12.1882 5.81399 11.5203 4.92194L10.1543 3.09717C9.32772 1.99308 7.73054 1.84723 6.78315 2.78923L5.08275 4.47998C4.613 4.94707 4.2982 5.55256 4.33638 6.22424C4.43404 7.94264 5.21152 11.6399 9.54989 15.9536C14.1505 20.5281 18.4673 20.7099 20.2326 20.5454C20.7909 20.4934 21.2765 20.209 21.6678 19.8198L23.2068 18.2897C24.2456 17.2568 23.9526 15.486 22.6235 14.7635L20.5538 13.6383C19.681 13.164 18.6179 13.3033 17.9358 13.9815Z" fill="#4DACB8"/>
</svg>
