<svg width="23" height="22" viewBox="0 0 23 22" fill="none" xmlns="http://www.w3.org/2000/svg">
<path d="M21.3369 2.22543C21.0641 2.00831 20.7348 1.866 20.3841 1.81367C20.0334 1.76134 19.6744 1.80093 19.3454 1.92824L2.17118 8.56065C1.80389 8.70519 1.49125 8.95315 1.27475 9.27163C1.05825 9.5901 0.94812 9.96403 0.958985 10.3438C0.96985 10.7235 1.10119 11.0911 1.33558 11.3978C1.56997 11.7045 1.89633 11.9357 2.27132 12.0608L5.74528 13.2165L7.68159 19.3413C7.70791 19.4231 7.74609 19.501 7.79504 19.5727C7.80247 19.5837 7.81294 19.5919 7.82084 19.6026C7.87738 19.678 7.94572 19.7447 8.02346 19.8003C8.04557 19.8165 8.06674 19.8316 8.09037 19.8459C8.18135 19.9036 8.2821 19.9458 8.38815 19.9706L8.3995 19.9716L8.40593 19.9742C8.46969 19.9866 8.53459 19.9929 8.59966 19.993C8.60591 19.993 8.61147 19.9901 8.61767 19.99C8.71587 19.9884 8.8132 19.9722 8.90622 19.9421C8.92786 19.935 8.9464 19.9232 8.9674 19.9147C9.03676 19.8872 9.10247 19.852 9.16317 19.8097C9.21178 19.7705 9.26041 19.7314 9.30905 19.6922L11.8986 16.9574L15.761 19.8193C16.101 20.0725 16.5195 20.2102 16.9505 20.2105C17.402 20.21 17.8396 20.0609 18.19 19.7884C18.5403 19.5159 18.782 19.1365 18.8746 18.7138L22.0014 4.03192C22.0722 3.70148 22.0478 3.35883 21.9308 3.04062C21.8137 2.72242 21.6085 2.44064 21.3369 2.22543ZM8.97965 13.5083C8.84677 13.6349 8.75594 13.7962 8.71855 13.972L8.42193 15.3507L7.67054 12.9737L11.5664 11.0332L8.97965 13.5083ZM16.9355 18.37L12.3713 14.988C12.1803 14.8469 11.9408 14.7797 11.7004 14.8C11.46 14.8202 11.2364 14.9264 11.0741 15.0972L10.2448 15.9728L10.5379 14.6103L17.3258 8.1175C17.4878 7.96273 17.5865 7.75758 17.604 7.5392C17.6215 7.32082 17.5567 7.10365 17.4213 6.92704C17.2859 6.75043 17.0888 6.62605 16.8658 6.57643C16.6428 6.52682 16.4085 6.55524 16.2055 6.65656L6.46379 11.5081L2.89461 10.2588L20.124 3.66576L16.9355 18.37Z" fill="white"/>
</svg>
