<svg width="23" height="22" viewBox="0 0 23 22" fill="none" xmlns="http://www.w3.org/2000/svg">
<path d="M21.3369 2.22522C21.0641 2.00809 20.7348 1.86579 20.3841 1.81346C20.0334 1.76113 19.6744 1.80072 19.3454 1.92803L2.17118 8.56043C1.80389 8.70497 1.49125 8.95294 1.27475 9.27141C1.05825 9.58989 0.94812 9.96381 0.958985 10.3436C0.96985 10.7233 1.10119 11.0909 1.33558 11.3976C1.56997 11.7042 1.89633 11.9355 2.27132 12.0606L5.74528 13.2163L7.68159 19.3411C7.70791 19.4229 7.74609 19.5008 7.79504 19.5725C7.80247 19.5835 7.81294 19.5917 7.82084 19.6023C7.87738 19.6778 7.94572 19.7445 8.02346 19.8001C8.04557 19.8162 8.06674 19.8313 8.09037 19.8457C8.18135 19.9034 8.2821 19.9456 8.38815 19.9704L8.3995 19.9713L8.40593 19.974C8.46969 19.9864 8.53459 19.9927 8.59966 19.9928C8.60591 19.9928 8.61147 19.9899 8.61767 19.9898C8.71587 19.9882 8.8132 19.972 8.90622 19.9419C8.92786 19.9348 8.9464 19.923 8.9674 19.9145C9.03676 19.887 9.10247 19.8518 9.16317 19.8095C9.21178 19.7703 9.26041 19.7311 9.30905 19.692L11.8986 16.9572L15.761 19.8191C16.101 20.0723 16.5195 20.21 16.9505 20.2103C17.402 20.2098 17.8396 20.0607 18.19 19.7882C18.5403 19.5157 18.782 19.1363 18.8746 18.7136L22.0014 4.0317C22.0722 3.70126 22.0478 3.35861 21.9308 3.04041C21.8137 2.72221 21.6085 2.44043 21.3369 2.22522ZM8.97965 13.5081C8.84677 13.6347 8.75594 13.796 8.71855 13.9718L8.42193 15.3505L7.67054 12.9735L11.5664 11.033L8.97965 13.5081ZM16.9355 18.3698L12.3713 14.9878C12.1803 14.8467 11.9408 14.7795 11.7004 14.7998C11.46 14.82 11.2364 14.9261 11.0741 15.097L10.2448 15.9726L10.5379 14.61L17.3258 8.11729C17.4878 7.96252 17.5865 7.75736 17.604 7.53898C17.6215 7.3206 17.5567 7.10344 17.4213 6.92683C17.2859 6.75022 17.0888 6.62584 16.8658 6.57622C16.6428 6.5266 16.4085 6.55503 16.2055 6.65635L6.46379 11.5079L2.89461 10.2586L20.124 3.66555L16.9355 18.3698Z" fill="white"/>
</svg>
