<svg width="22" height="22" viewBox="0 0 22 22" fill="none" xmlns="http://www.w3.org/2000/svg">
<path d="M2.91897 7.78266C5.23161 6.01162 8.07028 5.04394 11.0001 5.04394C13.9299 5.04394 16.7685 6.01162 19.0812 7.78266C19.4831 8.09047 20.0606 8.05678 20.3954 7.67701L21.0015 6.98935C21.3362 6.60957 21.3012 6.02799 20.9029 5.71545C18.0851 3.50417 14.5996 2.29395 11.0001 2.29395C7.40058 2.29395 3.91506 3.50417 1.09718 5.71545C0.698905 6.02799 0.663899 6.60957 0.998663 6.98935L1.60481 7.67701C1.93958 8.05678 2.51703 8.09047 2.91897 7.78266Z" fill="#4DACB8"/>
<path d="M6.1974 11.0955C7.62403 10.1418 9.30722 9.62697 11.0368 9.62697C12.7664 9.62697 14.4496 10.1418 15.8762 11.0955C16.2972 11.3768 16.8728 11.3287 17.1968 10.9396L17.7834 10.2354C18.1075 9.84633 18.0567 9.26498 17.6431 8.97306C15.7164 7.61346 13.4098 6.87695 11.0368 6.87695C8.66383 6.87695 6.35729 7.61346 4.43057 8.97306C4.01693 9.26498 3.96615 9.84633 4.29015 10.2354L4.87682 10.9396C5.20082 11.3287 5.77652 11.3768 6.1974 11.0955Z" fill="#4DACB8"/>
<path d="M11.0047 14.2095C10.4562 14.2095 9.91629 14.3188 9.41561 14.5279C8.9484 14.7229 8.37799 14.6372 8.08478 14.2245L7.55388 13.4772C7.26067 13.0645 7.35537 12.486 7.80339 12.2504C8.78652 11.733 9.88476 11.4595 11.0047 11.4595C12.1247 11.4595 13.223 11.733 14.2061 12.2504C14.6541 12.486 14.7489 13.0645 14.4556 13.4772L13.9247 14.2245C13.6315 14.6372 13.0611 14.7229 12.5939 14.5279C12.0932 14.3188 11.5534 14.2095 11.0047 14.2095Z" fill="#4DACB8"/>
<path d="M11.0001 19.7082C12.0126 19.7082 12.8334 18.8874 12.8334 17.8748C12.8334 16.8623 12.0126 16.0415 11.0001 16.0415C9.98753 16.0415 9.16675 16.8623 9.16675 17.8748C9.16675 18.8874 9.98753 19.7082 11.0001 19.7082Z" fill="#4DACB8"/>
</svg>
